<mxfile host="app.diagrams.net" agent="Mozilla/5.0 (Windows NT 10.0; Win64; x64) AppleWebKit/537.36 (KHTML, like Gecko) Chrome/126.0.0.0 Safari/537.36 OPR/112.0.0.0" version="24.7.6">
  <diagram name="Page-1" id="eOJ4QTS83NnCb0QkOUiU">
    <mxGraphModel dx="1629" dy="1011" grid="1" gridSize="10" guides="1" tooltips="1" connect="1" arrows="1" fold="1" page="1" pageScale="1" pageWidth="827" pageHeight="1169" math="0" shadow="0">
      <root>
        <mxCell id="0" />
        <mxCell id="1" parent="0" />
        <mxCell id="jWbt91FMcHT18E_j-DVa-154" style="edgeStyle=orthogonalEdgeStyle;rounded=0;orthogonalLoop=1;jettySize=auto;html=1;exitX=1;exitY=0;exitDx=0;exitDy=0;" parent="1" source="jWbt91FMcHT18E_j-DVa-5" target="jWbt91FMcHT18E_j-DVa-29" edge="1">
          <mxGeometry relative="1" as="geometry" />
        </mxCell>
        <mxCell id="jWbt91FMcHT18E_j-DVa-5" value="Transaction Management System" style="ellipse;whiteSpace=wrap;html=1;aspect=fixed;" parent="1" vertex="1">
          <mxGeometry x="372" y="344" width="100" height="100" as="geometry" />
        </mxCell>
        <mxCell id="jWbt91FMcHT18E_j-DVa-6" value="Account management system" style="ellipse;whiteSpace=wrap;html=1;aspect=fixed;" parent="1" vertex="1">
          <mxGeometry x="217" y="554" width="100" height="100" as="geometry" />
        </mxCell>
        <mxCell id="jWbt91FMcHT18E_j-DVa-7" value="Online Banking System" style="ellipse;whiteSpace=wrap;html=1;aspect=fixed;" parent="1" vertex="1">
          <mxGeometry x="642" y="586" width="100" height="100" as="geometry" />
        </mxCell>
        <mxCell id="jWbt91FMcHT18E_j-DVa-8" value="Loan Management System" style="ellipse;whiteSpace=wrap;html=1;aspect=fixed;" parent="1" vertex="1">
          <mxGeometry x="436" y="716" width="100" height="100" as="geometry" />
        </mxCell>
        <mxCell id="jWbt91FMcHT18E_j-DVa-173" style="edgeStyle=orthogonalEdgeStyle;rounded=0;orthogonalLoop=1;jettySize=auto;html=1;exitX=0.5;exitY=1;exitDx=0;exitDy=0;" parent="1" source="jWbt91FMcHT18E_j-DVa-9" target="jWbt91FMcHT18E_j-DVa-6" edge="1">
          <mxGeometry relative="1" as="geometry" />
        </mxCell>
        <mxCell id="jWbt91FMcHT18E_j-DVa-182" style="edgeStyle=orthogonalEdgeStyle;rounded=0;orthogonalLoop=1;jettySize=auto;html=1;exitX=0.5;exitY=0;exitDx=0;exitDy=0;entryX=1;entryY=0.5;entryDx=0;entryDy=0;" parent="1" source="jWbt91FMcHT18E_j-DVa-9" target="jWbt91FMcHT18E_j-DVa-7" edge="1">
          <mxGeometry relative="1" as="geometry">
            <Array as="points">
              <mxPoint x="267" y="292" />
              <mxPoint x="787" y="292" />
              <mxPoint x="787" y="636" />
            </Array>
          </mxGeometry>
        </mxCell>
        <mxCell id="jWbt91FMcHT18E_j-DVa-9" value="Bank" style="rounded=0;whiteSpace=wrap;html=1;" parent="1" vertex="1">
          <mxGeometry x="212" y="336" width="110" height="30" as="geometry" />
        </mxCell>
        <mxCell id="jWbt91FMcHT18E_j-DVa-157" style="edgeStyle=orthogonalEdgeStyle;rounded=0;orthogonalLoop=1;jettySize=auto;html=1;exitX=0.75;exitY=1;exitDx=0;exitDy=0;entryX=0;entryY=0.5;entryDx=0;entryDy=0;" parent="1" source="jWbt91FMcHT18E_j-DVa-11" target="jWbt91FMcHT18E_j-DVa-8" edge="1">
          <mxGeometry relative="1" as="geometry" />
        </mxCell>
        <mxCell id="jWbt91FMcHT18E_j-DVa-188" style="edgeStyle=orthogonalEdgeStyle;rounded=0;orthogonalLoop=1;jettySize=auto;html=1;exitX=0.5;exitY=1;exitDx=0;exitDy=0;" parent="1" source="jWbt91FMcHT18E_j-DVa-11" target="jWbt91FMcHT18E_j-DVa-6" edge="1">
          <mxGeometry relative="1" as="geometry">
            <Array as="points">
              <mxPoint x="377" y="622" />
            </Array>
          </mxGeometry>
        </mxCell>
        <mxCell id="jWbt91FMcHT18E_j-DVa-189" style="edgeStyle=orthogonalEdgeStyle;rounded=0;orthogonalLoop=1;jettySize=auto;html=1;exitX=0.75;exitY=0;exitDx=0;exitDy=0;entryX=0.5;entryY=1;entryDx=0;entryDy=0;" parent="1" source="jWbt91FMcHT18E_j-DVa-11" target="jWbt91FMcHT18E_j-DVa-5" edge="1">
          <mxGeometry relative="1" as="geometry">
            <Array as="points">
              <mxPoint x="417" y="546" />
              <mxPoint x="417" y="506" />
              <mxPoint x="422" y="506" />
            </Array>
          </mxGeometry>
        </mxCell>
        <mxCell id="jWbt91FMcHT18E_j-DVa-11" value="Customer" style="rounded=0;whiteSpace=wrap;html=1;" parent="1" vertex="1">
          <mxGeometry x="322" y="546" width="110" height="30" as="geometry" />
        </mxCell>
        <mxCell id="jWbt91FMcHT18E_j-DVa-12" value="Account/Cashier&lt;span style=&quot;color: rgba(0, 0, 0, 0); font-family: monospace; font-size: 0px; text-align: start; text-wrap: nowrap;&quot;&gt;%3CmxGraphModel%3E%3Croot%3E%3CmxCell%20id%3D%220%22%2F%3E%3CmxCell%20id%3D%221%22%20parent%3D%220%22%2F%3E%3CmxCell%20id%3D%222%22%20value%3D%22%22%20style%3D%22endArrow%3Dnone%3Bhtml%3D1%3Brounded%3D0%3B%22%20edge%3D%221%22%20parent%3D%221%22%3E%3CmxGeometry%20width%3D%2250%22%20height%3D%2250%22%20relative%3D%221%22%20as%3D%22geometry%22%3E%3CmxPoint%20x%3D%22394%22%20y%3D%22560%22%20as%3D%22sourcePoint%22%2F%3E%3CmxPoint%20x%3D%22524%22%20y%3D%22560%22%20as%3D%22targetPoint%22%2F%3E%3C%2FmxGeometry%3E%3C%2FmxCell%3E%3CmxCell%20id%3D%223%22%20value%3D%22%22%20style%3D%22endArrow%3Dnone%3Bhtml%3D1%3Brounded%3D0%3B%22%20edge%3D%221%22%20parent%3D%221%22%3E%3CmxGeometry%20width%3D%2250%22%20height%3D%2250%22%20relative%3D%221%22%20as%3D%22geometry%22%3E%3CmxPoint%20x%3D%22394%22%20y%3D%22600%22%20as%3D%22sourcePoint%22%2F%3E%3CmxPoint%20x%3D%22524%22%20y%3D%22600%22%20as%3D%22targetPoint%22%2F%3E%3C%2FmxGeometry%3E%3C%2FmxCell%3E%3C%2Froot%3E%3C%2FmxGraphModel%3E&lt;/span&gt;" style="rounded=0;whiteSpace=wrap;html=1;" parent="1" vertex="1">
          <mxGeometry x="46" y="436" width="150" height="30" as="geometry" />
        </mxCell>
        <mxCell id="jWbt91FMcHT18E_j-DVa-158" style="edgeStyle=orthogonalEdgeStyle;rounded=0;orthogonalLoop=1;jettySize=auto;html=1;exitX=0.5;exitY=1;exitDx=0;exitDy=0;" parent="1" source="jWbt91FMcHT18E_j-DVa-13" target="jWbt91FMcHT18E_j-DVa-8" edge="1">
          <mxGeometry relative="1" as="geometry" />
        </mxCell>
        <mxCell id="jWbt91FMcHT18E_j-DVa-13" value="Manager" style="rounded=0;whiteSpace=wrap;html=1;" parent="1" vertex="1">
          <mxGeometry x="436" y="586" width="110" height="30" as="geometry" />
        </mxCell>
        <mxCell id="jWbt91FMcHT18E_j-DVa-175" style="edgeStyle=orthogonalEdgeStyle;rounded=0;orthogonalLoop=1;jettySize=auto;html=1;exitX=0.75;exitY=1;exitDx=0;exitDy=0;entryX=0.5;entryY=0;entryDx=0;entryDy=0;" parent="1" source="jWbt91FMcHT18E_j-DVa-14" target="jWbt91FMcHT18E_j-DVa-7" edge="1">
          <mxGeometry relative="1" as="geometry" />
        </mxCell>
        <mxCell id="jWbt91FMcHT18E_j-DVa-14" value="Accountant/Cashier" style="rounded=0;whiteSpace=wrap;html=1;" parent="1" vertex="1">
          <mxGeometry x="552" y="496" width="110" height="30" as="geometry" />
        </mxCell>
        <mxCell id="jWbt91FMcHT18E_j-DVa-18" value="" style="endArrow=none;html=1;rounded=0;" parent="1" edge="1">
          <mxGeometry width="50" height="50" relative="1" as="geometry">
            <mxPoint x="416" y="866" as="sourcePoint" />
            <mxPoint x="546" y="866" as="targetPoint" />
          </mxGeometry>
        </mxCell>
        <mxCell id="jWbt91FMcHT18E_j-DVa-19" value="" style="endArrow=none;html=1;rounded=0;" parent="1" edge="1">
          <mxGeometry width="50" height="50" relative="1" as="geometry">
            <mxPoint x="416" y="906" as="sourcePoint" />
            <mxPoint x="546" y="906" as="targetPoint" />
          </mxGeometry>
        </mxCell>
        <mxCell id="jWbt91FMcHT18E_j-DVa-22" value="Loan&lt;br&gt;Detail&lt;span style=&quot;color: rgba(0, 0, 0, 0); font-family: monospace; font-size: 0px; text-align: start;&quot;&gt;%3CmxGraphModel%3E%3Croot%3E%3CmxCell%20id%3D%220%22%2F%3E%3CmxCell%20id%3D%221%22%20parent%3D%220%22%2F%3E%3CmxCell%20id%3D%222%22%20value%3D%22%22%20style%3D%22endArrow%3Dnone%3Bhtml%3D1%3Brounded%3D0%3B%22%20edge%3D%221%22%20parent%3D%221%22%3E%3CmxGeometry%20width%3D%2250%22%20height%3D%2250%22%20relative%3D%221%22%20as%3D%22geometry%22%3E%3CmxPoint%20x%3D%22394%22%20y%3D%22560%22%20as%3D%22sourcePoint%22%2F%3E%3CmxPoint%20x%3D%22524%22%20y%3D%22560%22%20as%3D%22targetPoint%22%2F%3E%3C%2FmxGeometry%3E%3C%2FmxCell%3E%3CmxCell%20id%3D%223%22%20value%3D%22%22%20style%3D%22endArrow%3Dnone%3Bhtml%3D1%3Brounded%3D0%3B%22%20edge%3D%221%22%20parent%3D%221%22%3E%3CmxGeometry%20width%3D%2250%22%20height%3D%2250%22%20relative%3D%221%22%20as%3D%22geometry%22%3E%3CmxPoint%20x%3D%22394%22%20y%3D%22600%22%20as%3D%22sourcePoint%22%2F%3E%3CmxPoint%20x%3D%22524%22%20y%3D%22600%22%20as%3D%22targetPoint%22%2F%3E%3C%2FmxGeometry%3E%3C%2FmxCell%3E%3C%2Froot%3E%3C%2FmxGraphModel%3E&lt;/span&gt;" style="text;html=1;align=center;verticalAlign=middle;resizable=0;points=[];autosize=1;strokeColor=none;fillColor=none;" parent="1" vertex="1">
          <mxGeometry x="457" y="869" width="50" height="40" as="geometry" />
        </mxCell>
        <mxCell id="jWbt91FMcHT18E_j-DVa-23" value="" style="endArrow=none;html=1;rounded=0;" parent="1" edge="1">
          <mxGeometry width="50" height="50" relative="1" as="geometry">
            <mxPoint x="552" y="324.57000000000005" as="sourcePoint" />
            <mxPoint x="682" y="324.57000000000005" as="targetPoint" />
          </mxGeometry>
        </mxCell>
        <mxCell id="jWbt91FMcHT18E_j-DVa-24" value="" style="endArrow=none;html=1;rounded=0;" parent="1" edge="1">
          <mxGeometry width="50" height="50" relative="1" as="geometry">
            <mxPoint x="552" y="364.57000000000005" as="sourcePoint" />
            <mxPoint x="682" y="364.57000000000005" as="targetPoint" />
          </mxGeometry>
        </mxCell>
        <mxCell id="jWbt91FMcHT18E_j-DVa-27" value="" style="endArrow=none;html=1;rounded=0;" parent="1" edge="1">
          <mxGeometry width="50" height="50" relative="1" as="geometry">
            <mxPoint x="552" y="406" as="sourcePoint" />
            <mxPoint x="682" y="406" as="targetPoint" />
          </mxGeometry>
        </mxCell>
        <mxCell id="jWbt91FMcHT18E_j-DVa-28" value="" style="endArrow=none;html=1;rounded=0;" parent="1" edge="1">
          <mxGeometry width="50" height="50" relative="1" as="geometry">
            <mxPoint x="552" y="446" as="sourcePoint" />
            <mxPoint x="682" y="446" as="targetPoint" />
          </mxGeometry>
        </mxCell>
        <mxCell id="jWbt91FMcHT18E_j-DVa-29" value="Credit detail" style="text;html=1;align=center;verticalAlign=middle;resizable=0;points=[];autosize=1;strokeColor=none;fillColor=none;" parent="1" vertex="1">
          <mxGeometry x="572" y="334" width="90" height="30" as="geometry" />
        </mxCell>
        <mxCell id="jWbt91FMcHT18E_j-DVa-30" value="Debit detail" style="text;html=1;align=center;verticalAlign=middle;resizable=0;points=[];autosize=1;strokeColor=none;fillColor=none;" parent="1" vertex="1">
          <mxGeometry x="572" y="414" width="80" height="30" as="geometry" />
        </mxCell>
        <mxCell id="jWbt91FMcHT18E_j-DVa-31" value="" style="endArrow=none;html=1;rounded=0;" parent="1" edge="1">
          <mxGeometry width="50" height="50" relative="1" as="geometry">
            <mxPoint x="46" y="544.5699999999999" as="sourcePoint" />
            <mxPoint x="176" y="544.5699999999999" as="targetPoint" />
          </mxGeometry>
        </mxCell>
        <mxCell id="jWbt91FMcHT18E_j-DVa-32" value="" style="endArrow=none;html=1;rounded=0;" parent="1" edge="1">
          <mxGeometry width="50" height="50" relative="1" as="geometry">
            <mxPoint x="46" y="584.5699999999999" as="sourcePoint" />
            <mxPoint x="176" y="584.5699999999999" as="targetPoint" />
          </mxGeometry>
        </mxCell>
        <mxCell id="jWbt91FMcHT18E_j-DVa-35" value="" style="endArrow=none;html=1;rounded=0;" parent="1" edge="1">
          <mxGeometry width="50" height="50" relative="1" as="geometry">
            <mxPoint x="52" y="654" as="sourcePoint" />
            <mxPoint x="182" y="654" as="targetPoint" />
          </mxGeometry>
        </mxCell>
        <mxCell id="jWbt91FMcHT18E_j-DVa-36" value="" style="endArrow=none;html=1;rounded=0;" parent="1" edge="1">
          <mxGeometry width="50" height="50" relative="1" as="geometry">
            <mxPoint x="52" y="694" as="sourcePoint" />
            <mxPoint x="182" y="694" as="targetPoint" />
          </mxGeometry>
        </mxCell>
        <mxCell id="jWbt91FMcHT18E_j-DVa-37" value="Account detail" style="text;html=1;align=center;verticalAlign=middle;resizable=0;points=[];autosize=1;strokeColor=none;fillColor=none;" parent="1" vertex="1">
          <mxGeometry x="65" y="552.5699999999999" width="100" height="30" as="geometry" />
        </mxCell>
        <mxCell id="jWbt91FMcHT18E_j-DVa-38" value="Interest detail" style="text;html=1;align=center;verticalAlign=middle;resizable=0;points=[];autosize=1;strokeColor=none;fillColor=none;" parent="1" vertex="1">
          <mxGeometry x="72" y="662" width="100" height="30" as="geometry" />
        </mxCell>
        <mxCell id="jWbt91FMcHT18E_j-DVa-139" value="" style="endArrow=none;html=1;rounded=0;" parent="1" edge="1">
          <mxGeometry width="50" height="50" relative="1" as="geometry">
            <mxPoint x="217" y="777" as="sourcePoint" />
            <mxPoint x="347" y="777" as="targetPoint" />
          </mxGeometry>
        </mxCell>
        <mxCell id="jWbt91FMcHT18E_j-DVa-140" value="" style="endArrow=none;html=1;rounded=0;" parent="1" edge="1">
          <mxGeometry width="50" height="50" relative="1" as="geometry">
            <mxPoint x="217" y="820" as="sourcePoint" />
            <mxPoint x="347" y="820" as="targetPoint" />
          </mxGeometry>
        </mxCell>
        <mxCell id="jWbt91FMcHT18E_j-DVa-141" value="Cash records&lt;div&gt;&amp;nbsp;&lt;/div&gt;" style="text;html=1;align=center;verticalAlign=middle;resizable=0;points=[];autosize=1;strokeColor=none;fillColor=none;" parent="1" vertex="1">
          <mxGeometry x="233" y="783" width="90" height="40" as="geometry" />
        </mxCell>
        <mxCell id="jWbt91FMcHT18E_j-DVa-144" value="&lt;span style=&quot;color: rgba(0, 0, 0, 0); font-family: monospace; font-size: 0px; text-align: start;&quot;&gt;%3CmxGraphModel%3E%3Croot%3E%3CmxCell%20id%3D%220%22%2F%3E%3CmxCell%20id%3D%221%22%20parent%3D%220%22%2F%3E%3CmxCell%20id%3D%222%22%20value%3D%22%22%20style%3D%22endArrow%3Dnone%3Bhtml%3D1%3Brounded%3D0%3B%22%20edge%3D%221%22%20parent%3D%221%22%3E%3CmxGeometry%20width%3D%2250%22%20height%3D%2250%22%20relative%3D%221%22%20as%3D%22geometry%22%3E%3CmxPoint%20x%3D%22165%22%20y%3D%22520%22%20as%3D%22sourcePoint%22%2F%3E%3CmxPoint%20x%3D%22295%22%20y%3D%22520%22%20as%3D%22targetPoint%22%2F%3E%3C%2FmxGeometry%3E%3C%2FmxCell%3E%3C%2Froot%3E%3C%2FmxGraphModel%3E&lt;/span&gt;&lt;span style=&quot;color: rgba(0, 0, 0, 0); font-family: monospace; font-size: 0px; text-align: start;&quot;&gt;%3CmxGraphModel%3E%3Croot%3E%3CmxCell%20id%3D%220%22%2F%3E%3CmxCell%20id%3D%221%22%20parent%3D%220%22%2F%3E%3CmxCell%20id%3D%222%22%20value%3D%22%22%20style%3D%22endArrow%3Dnone%3Bhtml%3D1%3Brounded%3D0%3B%22%20edge%3D%221%22%20parent%3D%221%22%3E%3CmxGeometry%20width%3D%2250%22%20height%3D%2250%22%20relative%3D%221%22%20as%3D%22geometry%22%3E%3CmxPoint%20x%3D%22165%22%20y%3D%22520%22%20as%3D%22sourcePoint%22%2F%3E%3CmxPoint%20x%3D%22295%22%20y%3D%22520%22%20as%3D%22targetPoint%22%2F%3E%3C%2FmxGeometry%3E%3C%2FmxCell%3E%3C%2Froot%3E%3C%2FmxGraphModel%3E&lt;/span&gt;" style="text;html=1;align=center;verticalAlign=middle;resizable=0;points=[];autosize=1;strokeColor=none;fillColor=none;" parent="1" vertex="1">
          <mxGeometry x="372" y="654" width="20" height="30" as="geometry" />
        </mxCell>
        <mxCell id="jWbt91FMcHT18E_j-DVa-145" value="" style="endArrow=none;html=1;rounded=0;" parent="1" edge="1">
          <mxGeometry width="50" height="50" relative="1" as="geometry">
            <mxPoint x="632" y="746" as="sourcePoint" />
            <mxPoint x="752" y="746" as="targetPoint" />
          </mxGeometry>
        </mxCell>
        <mxCell id="jWbt91FMcHT18E_j-DVa-146" value="" style="endArrow=none;html=1;rounded=0;" parent="1" edge="1">
          <mxGeometry width="50" height="50" relative="1" as="geometry">
            <mxPoint x="632" y="786" as="sourcePoint" />
            <mxPoint x="752" y="786" as="targetPoint" />
          </mxGeometry>
        </mxCell>
        <mxCell id="jWbt91FMcHT18E_j-DVa-147" value="Employee Records" style="text;html=1;align=center;verticalAlign=middle;resizable=0;points=[];autosize=1;strokeColor=none;fillColor=none;" parent="1" vertex="1">
          <mxGeometry x="632" y="747" width="120" height="30" as="geometry" />
        </mxCell>
        <mxCell id="jWbt91FMcHT18E_j-DVa-150" style="edgeStyle=orthogonalEdgeStyle;rounded=0;orthogonalLoop=1;jettySize=auto;html=1;exitX=1;exitY=0.5;exitDx=0;exitDy=0;entryX=0.28;entryY=0.069;entryDx=0;entryDy=0;entryPerimeter=0;" parent="1" source="jWbt91FMcHT18E_j-DVa-12" target="jWbt91FMcHT18E_j-DVa-6" edge="1">
          <mxGeometry relative="1" as="geometry" />
        </mxCell>
        <mxCell id="jWbt91FMcHT18E_j-DVa-155" style="edgeStyle=orthogonalEdgeStyle;rounded=0;orthogonalLoop=1;jettySize=auto;html=1;entryX=0.004;entryY=0.486;entryDx=0;entryDy=0;entryPerimeter=0;" parent="1" source="jWbt91FMcHT18E_j-DVa-5" target="jWbt91FMcHT18E_j-DVa-30" edge="1">
          <mxGeometry relative="1" as="geometry" />
        </mxCell>
        <mxCell id="jWbt91FMcHT18E_j-DVa-159" style="edgeStyle=orthogonalEdgeStyle;rounded=0;orthogonalLoop=1;jettySize=auto;html=1;exitX=1;exitY=0.5;exitDx=0;exitDy=0;entryX=0.023;entryY=0.334;entryDx=0;entryDy=0;entryPerimeter=0;" parent="1" source="jWbt91FMcHT18E_j-DVa-13" target="jWbt91FMcHT18E_j-DVa-7" edge="1">
          <mxGeometry relative="1" as="geometry" />
        </mxCell>
        <mxCell id="jWbt91FMcHT18E_j-DVa-171" style="edgeStyle=orthogonalEdgeStyle;rounded=0;orthogonalLoop=1;jettySize=auto;html=1;exitX=0.619;exitY=0.009;exitDx=0;exitDy=0;exitPerimeter=0;" parent="1" source="jWbt91FMcHT18E_j-DVa-6" target="jWbt91FMcHT18E_j-DVa-5" edge="1">
          <mxGeometry relative="1" as="geometry">
            <Array as="points">
              <mxPoint x="279" y="510" />
              <mxPoint x="402" y="510" />
            </Array>
          </mxGeometry>
        </mxCell>
        <mxCell id="jWbt91FMcHT18E_j-DVa-172" style="edgeStyle=orthogonalEdgeStyle;rounded=0;orthogonalLoop=1;jettySize=auto;html=1;exitX=0;exitY=0.5;exitDx=0;exitDy=0;entryX=0.746;entryY=0.98;entryDx=0;entryDy=0;entryPerimeter=0;" parent="1" source="jWbt91FMcHT18E_j-DVa-14" target="jWbt91FMcHT18E_j-DVa-5" edge="1">
          <mxGeometry relative="1" as="geometry" />
        </mxCell>
        <mxCell id="jWbt91FMcHT18E_j-DVa-174" style="edgeStyle=orthogonalEdgeStyle;rounded=0;orthogonalLoop=1;jettySize=auto;html=1;exitX=0.5;exitY=1;exitDx=0;exitDy=0;entryX=0.512;entryY=-0.024;entryDx=0;entryDy=0;entryPerimeter=0;" parent="1" source="jWbt91FMcHT18E_j-DVa-7" target="jWbt91FMcHT18E_j-DVa-147" edge="1">
          <mxGeometry relative="1" as="geometry" />
        </mxCell>
        <mxCell id="jWbt91FMcHT18E_j-DVa-177" value="" style="edgeStyle=none;orthogonalLoop=1;jettySize=auto;html=1;rounded=0;" parent="1" edge="1">
          <mxGeometry width="100" relative="1" as="geometry">
            <mxPoint x="342" y="802.29" as="sourcePoint" />
            <mxPoint x="442" y="802.29" as="targetPoint" />
            <Array as="points" />
          </mxGeometry>
        </mxCell>
        <mxCell id="jWbt91FMcHT18E_j-DVa-179" style="edgeStyle=orthogonalEdgeStyle;rounded=0;orthogonalLoop=1;jettySize=auto;html=1;exitX=0.5;exitY=1;exitDx=0;exitDy=0;entryX=1.003;entryY=0.79;entryDx=0;entryDy=0;entryPerimeter=0;" parent="1" source="jWbt91FMcHT18E_j-DVa-6" target="jWbt91FMcHT18E_j-DVa-38" edge="1">
          <mxGeometry relative="1" as="geometry" />
        </mxCell>
        <mxCell id="jWbt91FMcHT18E_j-DVa-180" style="edgeStyle=orthogonalEdgeStyle;rounded=0;orthogonalLoop=1;jettySize=auto;html=1;exitX=1;exitY=1;exitDx=0;exitDy=0;entryX=0.722;entryY=-0.004;entryDx=0;entryDy=0;entryPerimeter=0;" parent="1" source="jWbt91FMcHT18E_j-DVa-6" target="jWbt91FMcHT18E_j-DVa-141" edge="1">
          <mxGeometry relative="1" as="geometry" />
        </mxCell>
        <mxCell id="jWbt91FMcHT18E_j-DVa-181" style="edgeStyle=orthogonalEdgeStyle;rounded=0;orthogonalLoop=1;jettySize=auto;html=1;exitX=0.5;exitY=1;exitDx=0;exitDy=0;entryX=0.586;entryY=-0.075;entryDx=0;entryDy=0;entryPerimeter=0;" parent="1" source="jWbt91FMcHT18E_j-DVa-8" target="jWbt91FMcHT18E_j-DVa-22" edge="1">
          <mxGeometry relative="1" as="geometry" />
        </mxCell>
        <mxCell id="jWbt91FMcHT18E_j-DVa-183" value="A Bank manages all the Employees of the Branch" style="text;html=1;align=center;verticalAlign=middle;resizable=0;points=[];autosize=1;strokeColor=none;fillColor=none;" parent="1" vertex="1">
          <mxGeometry x="332" y="260" width="290" height="30" as="geometry" />
        </mxCell>
        <mxCell id="jWbt91FMcHT18E_j-DVa-184" value="A Bank checks for all the accounts and&lt;div&gt;&amp;nbsp;manages all the Branches of the Bank&lt;/div&gt;" style="text;html=1;align=center;verticalAlign=middle;resizable=0;points=[];autosize=1;strokeColor=none;fillColor=none;" parent="1" vertex="1">
          <mxGeometry x="46" y="382" width="230" height="40" as="geometry" />
        </mxCell>
        <mxCell id="jWbt91FMcHT18E_j-DVa-185" value="Manages the Queries and&amp;nbsp;&lt;div&gt;execute requests the&amp;nbsp;&lt;/div&gt;&lt;div&gt;Account for Customer.&lt;/div&gt;" style="text;html=1;align=center;verticalAlign=middle;resizable=0;points=[];autosize=1;strokeColor=none;fillColor=none;" parent="1" vertex="1">
          <mxGeometry x="36" y="472" width="160" height="60" as="geometry" />
        </mxCell>
        <mxCell id="jWbt91FMcHT18E_j-DVa-186" value="&lt;div&gt;Officials help the Customer with CREDIT/DEBIT requests&lt;/div&gt;&lt;div&gt;&lt;br&gt;&lt;/div&gt;" style="text;html=1;align=center;verticalAlign=middle;resizable=0;points=[];autosize=1;strokeColor=none;fillColor=none;" parent="1" vertex="1">
          <mxGeometry x="447" y="456" width="330" height="40" as="geometry" />
        </mxCell>
        <mxCell id="jWbt91FMcHT18E_j-DVa-190" value="Mention TYPE and Interest Rate" style="text;html=1;align=center;verticalAlign=middle;resizable=0;points=[];autosize=1;strokeColor=none;fillColor=none;" parent="1" vertex="1">
          <mxGeometry x="497" y="823" width="200" height="30" as="geometry" />
        </mxCell>
        <mxCell id="jWbt91FMcHT18E_j-DVa-191" value="&lt;div&gt;&lt;br&gt;&lt;/div&gt;&lt;div&gt;Approves/Rejects&amp;nbsp;&lt;/div&gt;&lt;div&gt;Loan&lt;/div&gt;" style="text;html=1;align=center;verticalAlign=middle;resizable=0;points=[];autosize=1;strokeColor=none;fillColor=none;" parent="1" vertex="1">
          <mxGeometry x="497" y="639" width="120" height="60" as="geometry" />
        </mxCell>
        <mxCell id="jWbt91FMcHT18E_j-DVa-192" value="Requests&amp;nbsp;&lt;div&gt;loan&lt;/div&gt;" style="text;html=1;align=center;verticalAlign=middle;resizable=0;points=[];autosize=1;strokeColor=none;fillColor=none;" parent="1" vertex="1">
          <mxGeometry x="392" y="659" width="80" height="40" as="geometry" />
        </mxCell>
        <mxCell id="jWbt91FMcHT18E_j-DVa-193" value="Requests Transaction" style="text;html=1;align=center;verticalAlign=middle;resizable=0;points=[];autosize=1;strokeColor=none;fillColor=none;" parent="1" vertex="1">
          <mxGeometry x="416" y="516" width="140" height="30" as="geometry" />
        </mxCell>
        <mxCell id="jWbt91FMcHT18E_j-DVa-194" value="Updates loan" style="text;html=1;align=center;verticalAlign=middle;resizable=0;points=[];autosize=1;strokeColor=none;fillColor=none;" parent="1" vertex="1">
          <mxGeometry x="282" y="480" width="90" height="30" as="geometry" />
        </mxCell>
        <mxCell id="jWbt91FMcHT18E_j-DVa-195" value="Part of Employee group" style="text;html=1;align=center;verticalAlign=middle;resizable=0;points=[];autosize=1;strokeColor=none;fillColor=none;" parent="1" vertex="1">
          <mxGeometry x="642" y="522.5699999999999" width="150" height="30" as="geometry" />
        </mxCell>
        <mxCell id="c-6-neEE6KMWNd4mDx7k-1" style="edgeStyle=orthogonalEdgeStyle;rounded=0;orthogonalLoop=1;jettySize=auto;html=1;exitX=0;exitY=0;exitDx=0;exitDy=0;entryX=1.02;entryY=0.541;entryDx=0;entryDy=0;entryPerimeter=0;" edge="1" parent="1" source="jWbt91FMcHT18E_j-DVa-6" target="jWbt91FMcHT18E_j-DVa-37">
          <mxGeometry relative="1" as="geometry" />
        </mxCell>
        <mxCell id="c-6-neEE6KMWNd4mDx7k-2" value="&lt;font style=&quot;font-size: 16px;&quot;&gt;Fig: Level-1 DFD for&amp;nbsp;&lt;/font&gt;&lt;div style=&quot;font-size: 16px;&quot;&gt;&lt;font style=&quot;font-size: 16px;&quot;&gt;Online Banking System&lt;/font&gt;&lt;/div&gt;" style="text;html=1;align=center;verticalAlign=middle;whiteSpace=wrap;rounded=0;" vertex="1" parent="1">
          <mxGeometry x="284" y="1000" width="260" height="60" as="geometry" />
        </mxCell>
      </root>
    </mxGraphModel>
  </diagram>
</mxfile>
